# xmcd
#
# Track frame offsets: 
#        150
#        10822
#        23219
#        33742
#        46225
#        60877
#        72969
#        93123
#        103001
#        115280
#        125382
#        138000
#
# Disc length: 1953 seconds
#
# Revision: 0
# Processed by: cddbd v1.5.2PL0 Copyright (c) Steve Scherf et al.
# Submitted via: ExactAudioCopy v0.99pb3
#
DISCID=93079f0c
DTITLE=Mitch Woods - Gumbo Blues
DYEAR=2010
DGENRE=Blues
TTITLE0=Gumbo Blues
TTITLE1=Ooh La La
TTITLE2=Caldonia's Party
TTITLE3=Ain't Gonna Do It
TTITLE4=Big Mamou
TTITLE5=Bumpity Bump
TTITLE6=Too Many Drivers
TTITLE7=Lil' Liza Jane
TTITLE8=Blue Monday
TTITLE9=Can't Stop Lovin' You
TTITLE10=I Hear You Knockin'
TTITLE11=Shame, Shame, Shame
EXTD=
EXTT0=
EXTT1=
EXTT2=
EXTT3=
EXTT4=
EXTT5=
EXTT6=
EXTT7=
EXTT8=
EXTT9=
EXTT10=
EXTT11=
PLAYORDER=
